<svg id="visual" viewBox="0 0 900 600" width="900" height="600" xmlns="http://www.w3.org/2000/svg" xmlns:xlink="http://www.w3.org/1999/xlink" version="1.1"><rect x="0" y="0" width="900" height="600" fill="#001220"></rect><defs><linearGradient id="grad1_0" x1="33.3%" y1="0%" x2="100%" y2="100%"><stop offset="20%" stop-color="#001220" stop-opacity="1"></stop><stop offset="80%" stop-color="#001220" stop-opacity="1"></stop></linearGradient></defs><defs><linearGradient id="grad2_0" x1="0%" y1="0%" x2="66.7%" y2="100%"><stop offset="20%" stop-color="#001220" stop-opacity="1"></stop><stop offset="80%" stop-color="#001220" stop-opacity="1"></stop></linearGradient></defs><g transform="translate(900, 0)"><path d="M0 351.5C-45.4 347 -90.8 342.4 -134.5 324.8C-178.2 307.2 -220.3 276.5 -236.9 236.9C-253.5 197.2 -244.7 148.5 -259.6 107.5C-274.5 66.5 -313 33.3 -351.5 0L0 0Z" fill="#FBAE3C"></path></g><g transform="translate(0, 600)"><path d="M0 -351.5C42.1 -339.9 84.1 -328.2 130.1 -314.1C176.1 -300 226 -283.6 248.6 -248.6C271.2 -213.6 266.4 -160.1 279 -115.6C291.6 -71.1 321.6 -35.5 351.5 0L0 0Z" fill="#FBAE3C"></path></g></svg>